name rise49.5252peak65.1548fall88.8305.mot
datacolumns 19
datarows 33
range 4.48331000000000 4.53664400000000
endheader
time	ground_force1_vx	ground_force1_vy	ground_force1_vz	ground_force1_px	ground_force1_py	ground_force1_pz	ground_force2_vx	ground_force2_vy	ground_force2_vz	ground_force2_px	ground_force2_py	ground_force2_pz	ground_torque1_x	ground_torque1_y	ground_torque1_z	ground_torque2_x	ground_torque2_y	ground_torque2_z	
4.48331000000000	41.88140400000000	754.56543299999998	66.39200200000001	0.34313000000000	0.00000000000000	0.14771600000000	0.00000000000000	0.00000000000000	0.00000000000000	0.00000000000000	0.00000000000000	0.00000000000000	0.00000000000000	31.84842200000000	0.00000000000000	0.00000000000000	0.00000000000000	0.00000000000000	
4.48498300000000	41.30926800000000	758.71376599999996	66.60304300000000	0.34206100000000	0.00000000000000	0.14770300000000	0.00000000000000	0.00000000000000	0.00000000000000	0.00000000000000	0.00000000000000	0.00000000000000	0.00000000000000	31.98954100000000	0.00000000000000	0.00000000000000	0.00000000000000	0.00000000000000	
4.48664100000000	40.74127800000000	762.72654000000000	66.80251400000000	0.34103100000000	0.00000000000000	0.14768800000000	0.00000000000000	0.00000000000000	0.00000000000000	0.00000000000000	0.00000000000000	0.00000000000000	0.00000000000000	32.12362600000000	0.00000000000000	0.00000000000000	0.00000000000000	0.00000000000000	
4.48831300000000	40.17806100000000	766.59974999999997	66.99065400000001	0.34004100000000	0.00000000000000	0.14767300000000	0.00000000000000	0.00000000000000	0.00000000000000	0.00000000000000	0.00000000000000	0.00000000000000	0.00000000000000	32.25080700000000	0.00000000000000	0.00000000000000	0.00000000000000	0.00000000000000	
4.48997600000000	39.62015300000000	770.32952299999999	67.16765700000001	0.33909000000000	0.00000000000000	0.14765700000000	0.00000000000000	0.00000000000000	0.00000000000000	0.00000000000000	0.00000000000000	0.00000000000000	0.00000000000000	32.37119600000000	0.00000000000000	0.00000000000000	0.00000000000000	0.00000000000000	
4.49164900000000	39.06800800000000	773.91213100000004	67.33367600000000	0.33817600000000	0.00000000000000	0.14763900000000	0.00000000000000	0.00000000000000	0.00000000000000	0.00000000000000	0.00000000000000	0.00000000000000	0.00000000000000	32.48487800000000	0.00000000000000	0.00000000000000	0.00000000000000	0.00000000000000	
4.49331200000000	38.52199500000000	777.34401500000001	67.48882300000000	0.33729900000000	0.00000000000000	0.14762200000000	0.00000000000000	0.00000000000000	0.00000000000000	0.00000000000000	0.00000000000000	0.00000000000000	0.00000000000000	32.59192200000000	0.00000000000000	0.00000000000000	0.00000000000000	0.00000000000000	
4.49498200000000	37.98240600000000	780.62179900000001	67.63317200000000	0.33645800000000	0.00000000000000	0.14760300000000	0.00000000000000	0.00000000000000	0.00000000000000	0.00000000000000	0.00000000000000	0.00000000000000	0.00000000000000	32.69237200000000	0.00000000000000	0.00000000000000	0.00000000000000	0.00000000000000	
4.49664700000000	37.44945400000000	783.74231299999997	67.76675899999999	0.33565200000000	0.00000000000000	0.14758400000000	0.00000000000000	0.00000000000000	0.00000000000000	0.00000000000000	0.00000000000000	0.00000000000000	0.00000000000000	32.78625800000000	0.00000000000000	0.00000000000000	0.00000000000000	0.00000000000000	
4.49831300000000	36.92328000000000	786.70260699999994	67.88959100000000	0.33487900000000	0.00000000000000	0.14756400000000	0.00000000000000	0.00000000000000	0.00000000000000	0.00000000000000	0.00000000000000	0.00000000000000	0.00000000000000	32.87359000000000	0.00000000000000	0.00000000000000	0.00000000000000	0.00000000000000	
4.49998800000000	36.40395600000000	789.49996699999997	68.00164100000001	0.33413800000000	0.00000000000000	0.14754400000000	0.00000000000000	0.00000000000000	0.00000000000000	0.00000000000000	0.00000000000000	0.00000000000000	0.00000000000000	32.95436400000000	0.00000000000000	0.00000000000000	0.00000000000000	0.00000000000000	
4.50164500000000	35.89148700000000	792.13193400000000	68.10285800000000	0.33342800000000	0.00000000000000	0.14752300000000	0.00000000000000	0.00000000000000	0.00000000000000	0.00000000000000	0.00000000000000	0.00000000000000	0.00000000000000	33.02856000000000	0.00000000000000	0.00000000000000	0.00000000000000	0.00000000000000	
4.50331300000000	35.38581900000000	794.59631400000001	68.19316700000000	0.33274700000000	0.00000000000000	0.14750200000000	0.00000000000000	0.00000000000000	0.00000000000000	0.00000000000000	0.00000000000000	0.00000000000000	0.00000000000000	33.09614800000000	0.00000000000000	0.00000000000000	0.00000000000000	0.00000000000000	
4.50497700000000	34.88684200000000	796.89119300000004	68.27247400000000	0.33209200000000	0.00000000000000	0.14748100000000	0.00000000000000	0.00000000000000	0.00000000000000	0.00000000000000	0.00000000000000	0.00000000000000	0.00000000000000	33.15708500000000	0.00000000000000	0.00000000000000	0.00000000000000	0.00000000000000	
4.50664400000000	34.39439100000000	799.01495199999999	68.34066900000001	0.33146300000000	0.00000000000000	0.14745900000000	0.00000000000000	0.00000000000000	0.00000000000000	0.00000000000000	0.00000000000000	0.00000000000000	0.00000000000000	33.21132200000000	0.00000000000000	0.00000000000000	0.00000000000000	0.00000000000000	
4.50831100000000	33.90825700000000	800.96627000000001	68.39762800000000	0.33085700000000	0.00000000000000	0.14743800000000	0.00000000000000	0.00000000000000	0.00000000000000	0.00000000000000	0.00000000000000	0.00000000000000	0.00000000000000	33.25880200000000	0.00000000000000	0.00000000000000	0.00000000000000	0.00000000000000	
4.50998100000000	33.42818800000000	802.74414200000001	68.44322300000000	0.33027200000000	0.00000000000000	0.14741600000000	0.00000000000000	0.00000000000000	0.00000000000000	0.00000000000000	0.00000000000000	0.00000000000000	0.00000000000000	33.29946000000000	0.00000000000000	0.00000000000000	0.00000000000000	0.00000000000000	
4.51164300000000	32.95389400000000	804.34788400000002	68.47731700000000	0.32970600000000	0.00000000000000	0.14739400000000	0.00000000000000	0.00000000000000	0.00000000000000	0.00000000000000	0.00000000000000	0.00000000000000	0.00000000000000	33.33323200000000	0.00000000000000	0.00000000000000	0.00000000000000	0.00000000000000	
4.51331400000000	32.48505600000000	805.77713500000004	68.49977400000000	0.32915800000000	0.00000000000000	0.14737300000000	0.00000000000000	0.00000000000000	0.00000000000000	0.00000000000000	0.00000000000000	0.00000000000000	0.00000000000000	33.36004800000000	0.00000000000000	0.00000000000000	0.00000000000000	0.00000000000000	
4.51497800000000	32.02132500000000	807.03187000000003	68.51046100000001	0.32862400000000	0.00000000000000	0.14735100000000	0.00000000000000	0.00000000000000	0.00000000000000	0.00000000000000	0.00000000000000	0.00000000000000	0.00000000000000	33.37984200000000	0.00000000000000	0.00000000000000	0.00000000000000	0.00000000000000	
4.51664900000000	31.56233200000000	808.11239899999998	68.50925100000001	0.32810300000000	0.00000000000000	0.14733000000000	0.00000000000000	0.00000000000000	0.00000000000000	0.00000000000000	0.00000000000000	0.00000000000000	0.00000000000000	33.39254700000000	0.00000000000000	0.00000000000000	0.00000000000000	0.00000000000000	
4.51830900000000	31.10768900000000	809.01937099999998	68.49602500000000	0.32759100000000	0.00000000000000	0.14730800000000	0.00000000000000	0.00000000000000	0.00000000000000	0.00000000000000	0.00000000000000	0.00000000000000	0.00000000000000	33.39810000000000	0.00000000000000	0.00000000000000	0.00000000000000	0.00000000000000	
4.51999900000000	30.65699800000000	809.75377600000002	68.47068000000000	0.32708800000000	0.00000000000000	0.14728700000000	0.00000000000000	0.00000000000000	0.00000000000000	0.00000000000000	0.00000000000000	0.00000000000000	0.00000000000000	33.39644300000000	0.00000000000000	0.00000000000000	0.00000000000000	0.00000000000000	
4.52164900000000	30.20985400000000	810.31694200000004	68.43312400000001	0.32659100000000	0.00000000000000	0.14726700000000	0.00000000000000	0.00000000000000	0.00000000000000	0.00000000000000	0.00000000000000	0.00000000000000	0.00000000000000	33.38752400000000	0.00000000000000	0.00000000000000	0.00000000000000	0.00000000000000	
4.52331600000000	29.76584800000000	810.71053400000005	68.38328900000000	0.32609600000000	0.00000000000000	0.14724600000000	0.00000000000000	0.00000000000000	0.00000000000000	0.00000000000000	0.00000000000000	0.00000000000000	0.00000000000000	33.37130000000000	0.00000000000000	0.00000000000000	0.00000000000000	0.00000000000000	
4.52497900000000	29.32457400000000	810.93655400000000	68.32112300000000	0.32560300000000	0.00000000000000	0.14722600000000	0.00000000000000	0.00000000000000	0.00000000000000	0.00000000000000	0.00000000000000	0.00000000000000	0.00000000000000	33.34773700000000	0.00000000000000	0.00000000000000	0.00000000000000	0.00000000000000	
4.52664300000000	28.88563100000000	810.99733100000003	68.24660100000000	0.32510800000000	0.00000000000000	0.14720700000000	0.00000000000000	0.00000000000000	0.00000000000000	0.00000000000000	0.00000000000000	0.00000000000000	0.00000000000000	33.31680900000000	0.00000000000000	0.00000000000000	0.00000000000000	0.00000000000000	
4.52830800000000	28.44862900000000	810.89552100000003	68.15972300000000	0.32460900000000	0.00000000000000	0.14718800000000	0.00000000000000	0.00000000000000	0.00000000000000	0.00000000000000	0.00000000000000	0.00000000000000	0.00000000000000	33.27850500000000	0.00000000000000	0.00000000000000	0.00000000000000	0.00000000000000	
4.52997600000000	28.01319300000000	810.63409400000000	68.06051500000000	0.32410400000000	0.00000000000000	0.14717000000000	0.00000000000000	0.00000000000000	0.00000000000000	0.00000000000000	0.00000000000000	0.00000000000000	0.00000000000000	33.23282500000000	0.00000000000000	0.00000000000000	0.00000000000000	0.00000000000000	
4.53164600000000	27.57896400000000	810.21632899999997	67.94903300000000	0.32359000000000	0.00000000000000	0.14715200000000	0.00000000000000	0.00000000000000	0.00000000000000	0.00000000000000	0.00000000000000	0.00000000000000	0.00000000000000	33.17978200000000	0.00000000000000	0.00000000000000	0.00000000000000	0.00000000000000	
4.53332100000000	27.14560400000000	809.64580400000000	67.82536399999999	0.32306500000000	0.00000000000000	0.14713500000000	0.00000000000000	0.00000000000000	0.00000000000000	0.00000000000000	0.00000000000000	0.00000000000000	0.00000000000000	33.11940400000000	0.00000000000000	0.00000000000000	0.00000000000000	0.00000000000000	
4.53498200000000	26.71280000000000	808.92638499999998	67.68962500000001	0.32252800000000	0.00000000000000	0.14711800000000	0.00000000000000	0.00000000000000	0.00000000000000	0.00000000000000	0.00000000000000	0.00000000000000	0.00000000000000	33.05173600000000	0.00000000000000	0.00000000000000	0.00000000000000	0.00000000000000	
4.53664400000000	26.28026600000000	808.06221400000004	67.54196600000000	0.32197500000000	0.00000000000000	0.14710200000000	0.00000000000000	0.00000000000000	0.00000000000000	0.00000000000000	0.00000000000000	0.00000000000000	0.00000000000000	32.97683600000000	0.00000000000000	0.00000000000000	0.00000000000000	0.00000000000000	
